 http://www.imdb.com/title/tt1464540/

John is an extraordinary teen, masking his true identity and passing as a typical high school student to elude a deadly enemy seeking to destroy him. Three like him have already been killed ... he is Number Four. 

General
Complete name: I.Am.Number.Four.2011.TS.XViD-PRESTiGE.avi
Format: AVI
Format/Info: Audio Video Interleave
File size: 915 MiB
Duration: 1h 38mn
Overall bit rate: 1 298 Kbps
Writing library: MPlayer

Video
ID: 0
Format: MPEG-4 Visual
Format profile: Advanced Simple@L5
Format settings, BVOP: 2
Format settings, QPel: No
Format settings, GMC: No warppoints
Format settings, Matrix: Default (H.263)
Codec ID: XVID
Codec ID/Hint: XviD
Duration: 1h 38mn
Bit rate: 1 029 Kbps
Width: 720 pixels
Height: 480 pixels
Display aspect ratio: 3:2
Frame rate: 25.000 fps
Standard: NTSC
Color space: YUV
Chroma subsampling: 4:2:0
Bit depth: 8 bits
Scan type: Progressive
Compression mode: Lossy
Bits/(Pixel*Frame): 0.119
Stream size: 726 MiB (79%)
Writing library: XviD 1.1.2 (UTC 2006-11-01)

Audio
ID: 1
Format: MPEG Audio
Format version: Version 1
Format profile: Layer 3
Mode: Joint stereo
Codec ID: 55
Codec ID/Hint: MP3
Duration: 1h 38mn
Bit rate mode: Constant
Bit rate: 256 Kbps
Channel(s): 2 channels
Sampling rate: 44.1 KHz
Compression mode: Lossy
Delay relative to video: 40ms
Stream size: 180 MiB (20%)
Alignment: Aligned on interleaves
Interleave, duration: 26 ms (0.65 video frame)
Interleave, preload duration: 809 ms

